# xmcd
#
# Track frame offsets:
#	150
#	14315
#	32233
#	49125
#	60104
#	89605
#	103095
#	118394
#	131938
#	148398
#	162104
#	177592
#
# Disc length: 2645 seconds
#
# Revision: 0
# Processed by: cddbd v1.5.2PL0 Copyright (c) Steve Scherf et al.
# Submitted via: EasyCDDAExtractor 16.0.6.1
#
DISCID=b20a530c
DTITLE=Συλλογικός δίσκος - Μεγάλοι συνθέτες-Μ. Θεοδωράκης
DYEAR=1994
DGENRE=Λαϊκή
TTITLE0=Αλεξίου Χάρις - Χάθηκα [Γ. Θεοδωράκη]
TTITLE1=Λίντα Μαίρη - Σε πότισα ροδόσταμο [Ν. Γκάτσου]
TTITLE2=Μπιθικώτσης Γρηγόρης - Ένα δειλινό [Γ. Θεοδωράκη]
TTITLE3=Μητσιάς Μανώλης - Το παλληκάρι έχει καημό [Μ. Ελευθερίου]
TTITLE4=Φαραντούρη Μαρία - Άσμα ασμάτων [Ι. Καμπανέλλη]
TTITLE5=Μπιθικώτσης Γρηγόρης - Χρυσοπράσινο φύλλο [Λ. Μαλένη]
TTITLE6=Λίντα Μαίρη - Μαργαρίτα μαγιοπούλα [C.C.]
TTITLE7=Φαραντούρη Μαρία - Το γελαστό παιδί [Μ. Μπίαμ, απόδ. Β. Ρώτα]
TTITLE8=Μερκούρη Μελίνα - Αστέρι μου φεγγάρι μου [Γ. Θεοδωράκη]
TTITLE9=Μπιθικώτσης Γρηγόρης - Δόξα τω Θεώ [Ι. Καμπανέλλη]
TTITLE10=Μπιθικώτσης Γρηγόρης - Στο περιγιάλι το κρυφό [Γ. Σεφέρη]
TTITLE11=Μητσιάς Μανώλης - Το τρένο φεύγει στις οκτώ [Μ. Ελευθερίου]
EXTD=
EXTT0=
EXTT1=
EXTT2=
EXTT3=
EXTT4=
EXTT5=
EXTT6=
EXTT7=
EXTT8=
EXTT9=
EXTT10=
EXTT11=
PLAYORDER=
